<mxfile host="Electron" modified="2024-07-19T04:38:27.495Z" agent="Mozilla/5.0 (Windows NT 10.0; Win64; x64) AppleWebKit/537.36 (KHTML, like Gecko) draw.io/24.6.4 Chrome/124.0.6367.207 Electron/30.0.6 Safari/537.36" etag="IlTWKO-kKchvjckvuZee" version="24.6.4" type="device">
  <diagram name="Page-1" id="p5fzwndF6cGXo0QyZnEr">
    <mxGraphModel dx="1036" dy="606" grid="1" gridSize="10" guides="1" tooltips="1" connect="1" arrows="1" fold="1" page="1" pageScale="1" pageWidth="850" pageHeight="1100" math="0" shadow="0">
      <root>
        <mxCell id="0" />
        <mxCell id="1" parent="0" />
        <mxCell id="i8wrnkV3VTPk6M6Sq0uC-1" style="edgeStyle=none;rounded=0;orthogonalLoop=1;jettySize=auto;html=1;exitX=0.5;exitY=1;exitDx=0;exitDy=0;entryX=0.5;entryY=0;entryDx=0;entryDy=0;" edge="1" parent="1" source="i8wrnkV3VTPk6M6Sq0uC-3" target="i8wrnkV3VTPk6M6Sq0uC-7">
          <mxGeometry relative="1" as="geometry" />
        </mxCell>
        <mxCell id="i8wrnkV3VTPk6M6Sq0uC-2" style="edgeStyle=none;rounded=0;orthogonalLoop=1;jettySize=auto;html=1;exitX=0.5;exitY=1;exitDx=0;exitDy=0;entryX=0.5;entryY=0;entryDx=0;entryDy=0;" edge="1" parent="1" source="i8wrnkV3VTPk6M6Sq0uC-3" target="i8wrnkV3VTPk6M6Sq0uC-11">
          <mxGeometry relative="1" as="geometry" />
        </mxCell>
        <mxCell id="i8wrnkV3VTPk6M6Sq0uC-3" value="Plant" style="rounded=1;whiteSpace=wrap;html=1;" vertex="1" parent="1">
          <mxGeometry x="365" y="80" width="120" height="60" as="geometry" />
        </mxCell>
        <mxCell id="i8wrnkV3VTPk6M6Sq0uC-4" style="edgeStyle=none;rounded=0;orthogonalLoop=1;jettySize=auto;html=1;exitX=0.5;exitY=1;exitDx=0;exitDy=0;entryX=0.5;entryY=0;entryDx=0;entryDy=0;" edge="1" parent="1" source="i8wrnkV3VTPk6M6Sq0uC-7" target="i8wrnkV3VTPk6M6Sq0uC-17">
          <mxGeometry relative="1" as="geometry" />
        </mxCell>
        <mxCell id="i8wrnkV3VTPk6M6Sq0uC-5" style="edgeStyle=none;rounded=0;orthogonalLoop=1;jettySize=auto;html=1;exitX=0.5;exitY=1;exitDx=0;exitDy=0;entryX=1;entryY=0.5;entryDx=0;entryDy=0;" edge="1" parent="1" source="i8wrnkV3VTPk6M6Sq0uC-7" target="i8wrnkV3VTPk6M6Sq0uC-15">
          <mxGeometry relative="1" as="geometry" />
        </mxCell>
        <mxCell id="i8wrnkV3VTPk6M6Sq0uC-6" style="edgeStyle=none;rounded=0;orthogonalLoop=1;jettySize=auto;html=1;exitX=0.5;exitY=1;exitDx=0;exitDy=0;entryX=0.5;entryY=0;entryDx=0;entryDy=0;" edge="1" parent="1" source="i8wrnkV3VTPk6M6Sq0uC-7" target="i8wrnkV3VTPk6M6Sq0uC-16">
          <mxGeometry relative="1" as="geometry" />
        </mxCell>
        <mxCell id="i8wrnkV3VTPk6M6Sq0uC-7" value="Non-Flowering" style="rounded=1;whiteSpace=wrap;html=1;" vertex="1" parent="1">
          <mxGeometry x="220" y="200" width="120" height="60" as="geometry" />
        </mxCell>
        <mxCell id="i8wrnkV3VTPk6M6Sq0uC-8" style="edgeStyle=none;rounded=0;orthogonalLoop=1;jettySize=auto;html=1;exitX=0.5;exitY=1;exitDx=0;exitDy=0;entryX=0.5;entryY=0;entryDx=0;entryDy=0;" edge="1" parent="1" source="i8wrnkV3VTPk6M6Sq0uC-11" target="i8wrnkV3VTPk6M6Sq0uC-14">
          <mxGeometry relative="1" as="geometry" />
        </mxCell>
        <mxCell id="i8wrnkV3VTPk6M6Sq0uC-9" style="edgeStyle=none;rounded=0;orthogonalLoop=1;jettySize=auto;html=1;exitX=0.5;exitY=1;exitDx=0;exitDy=0;entryX=0.5;entryY=0;entryDx=0;entryDy=0;" edge="1" parent="1" source="i8wrnkV3VTPk6M6Sq0uC-11" target="i8wrnkV3VTPk6M6Sq0uC-13">
          <mxGeometry relative="1" as="geometry" />
        </mxCell>
        <mxCell id="i8wrnkV3VTPk6M6Sq0uC-10" style="edgeStyle=none;rounded=0;orthogonalLoop=1;jettySize=auto;html=1;exitX=0.5;exitY=1;exitDx=0;exitDy=0;entryX=0;entryY=0.5;entryDx=0;entryDy=0;" edge="1" parent="1" source="i8wrnkV3VTPk6M6Sq0uC-11" target="i8wrnkV3VTPk6M6Sq0uC-12">
          <mxGeometry relative="1" as="geometry" />
        </mxCell>
        <mxCell id="i8wrnkV3VTPk6M6Sq0uC-11" value="Flowering" style="rounded=1;whiteSpace=wrap;html=1;" vertex="1" parent="1">
          <mxGeometry x="490" y="200" width="120" height="60" as="geometry" />
        </mxCell>
        <mxCell id="i8wrnkV3VTPk6M6Sq0uC-12" value="Jasmine" style="rounded=1;whiteSpace=wrap;html=1;" vertex="1" parent="1">
          <mxGeometry x="700" y="250" width="120" height="60" as="geometry" />
        </mxCell>
        <mxCell id="i8wrnkV3VTPk6M6Sq0uC-13" value="Apple tree" style="rounded=1;whiteSpace=wrap;html=1;" vertex="1" parent="1">
          <mxGeometry x="630" y="330" width="120" height="60" as="geometry" />
        </mxCell>
        <mxCell id="i8wrnkV3VTPk6M6Sq0uC-14" value="Rosemary" style="rounded=1;whiteSpace=wrap;html=1;" vertex="1" parent="1">
          <mxGeometry x="490" y="370" width="120" height="60" as="geometry" />
        </mxCell>
        <mxCell id="i8wrnkV3VTPk6M6Sq0uC-15" value="Fir tree" style="rounded=1;whiteSpace=wrap;html=1;" vertex="1" parent="1">
          <mxGeometry y="250" width="120" height="60" as="geometry" />
        </mxCell>
        <mxCell id="i8wrnkV3VTPk6M6Sq0uC-16" value="Junipers" style="rounded=1;whiteSpace=wrap;html=1;" vertex="1" parent="1">
          <mxGeometry x="80" y="330" width="120" height="60" as="geometry" />
        </mxCell>
        <mxCell id="i8wrnkV3VTPk6M6Sq0uC-17" value="Mosses" style="rounded=1;whiteSpace=wrap;html=1;" vertex="1" parent="1">
          <mxGeometry x="220" y="370" width="120" height="60" as="geometry" />
        </mxCell>
      </root>
    </mxGraphModel>
  </diagram>
</mxfile>
